<?xml version="1.0" encoding="UTF-8"?><svg xmlns="http://www.w3.org/2000/svg" xmlns:xlink="http://www.w3.org/1999/xlink" viewBox="0 0 226.12 148.24"><defs><style>.cls-1{fill:#606060;mix-blend-mode:multiply;opacity:.27;}.cls-2{fill:#8bdaa3;}.cls-3{fill:#fff;}.cls-4{fill:#fbfbfb;}.cls-5{fill:#605c5d;}.cls-6{fill:#7cce92;}.cls-7{fill:none;}.cls-8{clip-path:url(#clippath-1);}.cls-9{isolation:isolate;}.cls-10{fill:#7ec9e8;}.cls-11{fill:#dae889;}.cls-12{fill:#fff685;}.cls-13{fill:#ffbb4d;}.cls-14{clip-path:url(#clippath);}.cls-15{fill:#a2e4fe;}.cls-16{fill:#ffcb6b;}</style><clipPath id="clippath"><rect class="cls-7" x="-1.61" y="-.99" width="229.33" height="150.22"/></clipPath><clipPath id="clippath-1"><path class="cls-7" d="M177.94,92.11c0-40.72-31.6-73.72-70.57-73.72S36.8,51.39,36.8,92.11c0,3.79.28,7.52.8,11.15v15.42c0,25.93,20.31,47.15,45.14,47.15h49.66c24.83,0,45.14-21.22,45.14-47.15v-16.59c0-.59-.02-1.18-.04-1.77.29-2.69.45-5.43.45-8.2Z"/></clipPath></defs><g class="cls-9"><g id="Layer_1"><g class="cls-14"><rect class="cls-12" x="-1.61" y="-.99" width="229.33" height="150.22"/><path class="cls-6" d="M244.83,118.24l-27.65-12.05s-43.96-1.77-46.09-2.48c-2.13-.71-61.69,0-61.69,0l-38.29-16.31-33.68-9.93-45.73-11.7-13.3,19.09v37.52l28.54,17.03,33.68,5.6,63.11,25.94,102.82,6.5,44.14-6.5v-37.53l-5.85-15.19Z"/><path class="cls-1" d="M250.68,133.43s-20.39-18.08-97.8-11.7c-77.41,6.38-92.77-46.44-174.49-36.87v-37.52c81.72-9.57,97.08,43.25,174.49,36.87,77.41-6.38,97.8,11.7,97.8,11.7v37.52Z"/><path class="cls-2" d="M250.68,208.48s-20.39-18.08-97.8-11.7c-77.41,6.38-92.77-46.45-174.49-36.87v-37.52c81.72-9.57,97.08,43.26,174.49,36.87,77.41-6.38,97.8,11.7,97.8,11.7v37.52Z"/><path class="cls-10" d="M191.74,113.98c-6.12-.08-11.8-.42-16.18-4.99-1.59-1.66-3.17-3.36-4.77-5.03-.83-.87-3.75-4.22-3.4-3.5-6.38-13.21-27.74-4.91-21.33,8.37,3.32,6.88,10.32,14.24,16.09,19.22,9.1,7.86,20.72,8.54,32.18,8.69,6.23.08,10.66-7.08,10.08-12.68-.7-6.8-6.53-10-12.68-10.08h0Z"/><path class="cls-11" d="M78.3,134.14c.5,12.2.99,24.39,1.49,36.59.6,14.69,23.5,14.76,22.9,0-.5-12.2-.99-24.39-1.49-36.59-.6-14.69-23.5-14.76-22.9,0h0Z"/><path class="cls-11" d="M118.42,134.14c.5,12.2.99,24.39,1.49,36.59.6,14.69,23.5,14.76,22.9,0-.5-12.2-.99-24.39-1.49-36.59-.6-14.69-23.5-14.76-22.9,0h0Z"/><ellipse class="cls-15" cx="107.37" cy="92.11" rx="70.57" ry="73.72"/><rect class="cls-15" x="37.61" y="54.93" width="139.94" height="110.9" rx="50.78" ry="50.78"/><g class="cls-8"><path class="cls-10" d="M17.47,124.35c5.85,8.4,16.43,13.99,24.59,19.91,1.2.87,4.38,3.36,2.76,2.01,2.86,2.4,5.53,4.64,8.93,6.24,9.67,4.56,20.01,3.33,30.22,1.75,6.1-.94,9.53-8.62,8-14.09-1.83-6.52-7.93-8.95-14.09-8-5.94.92-11.55,1.65-16.63-1.91-3-2.1-5.84-4.49-8.81-6.64-3.5-2.53-7.01-5.02-10.48-7.59-1.21-.9-2.67-1.99-3.32-2.54-1.03-.85-3.64-3.93-1.4-.72-8.36-12.01-28.23-.58-19.78,11.56h0Z"/></g><path class="cls-16" d="M174,41.9c-9.7,14.52-20.5,5.53-35.23,8.06-16.42,2.81-17.14,4.7-36.2,10.45-18.49,5.57-35.98,0-48.24-1.27-12.53-1.3-15.78-.25-19.38-2.65-2.86-1.91-1.73-6.1,2.67-8.25,5.09-2.48-1.28-5.09,52.27-15.59,37.06-7.27,93.59-4.96,84.11,9.25Z"/><path class="cls-16" d="M79.96,45.25s6.88,4.3,31.96-2.97c25.08-7.27,27.59-8.48,28.22-11.54S118.62-.94,79.41,17.73c-12.53,5.96-18.73,16.55-18.23,20.74.93,7.77,18.77,6.78,18.77,6.78Z"/><path class="cls-13" d="M59.65,41.11c4.47,2.11,9.5,3.2,14.36,3.92,12.54,1.85,25.33.82,37.59-2.32,10.09-2.59,19.77-6.62,28.95-11.52,3.47-1.85.39-7.13-3.08-5.27-21.3,11.37-47.6,18.23-70.98,11.23-1.09-.33-2.18-.68-3.24-1.1-.53-.21-1.15-.51-.23-.08-.1-.04-.19-.08-.29-.13-3.53-1.67-6.64,3.59-3.08,5.27h0Z"/><path class="cls-4" d="M79.34,115.19c-23.36-3.21-21.6-47.68,6.04-44.67,26.5,2.89,23.69,48.76-6.04,44.67ZM92.05,106.64c11.09-1.8,11.63-24.83-3.32-25.28-15.54-.47-15.79,28.39,3.32,25.28Z"/><path class="cls-5" d="M104.43,113.15l.47,4.35c1.33,1.95,16.66,1.8,16.66-1.68-3.84-4.93-11.56-1.9-17.13-2.67Z"/><path class="cls-5" d="M88.73,81.36c-15.54-.47-15.79,28.39,3.32,25.28,11.09-1.8,11.63-24.83-3.32-25.28Z"/><path class="cls-4" d="M137.72,115.19c-23.36-3.21-21.6-47.68,6.04-44.67,26.5,2.89,23.69,48.76-6.04,44.67ZM150.43,106.64c11.09-1.8,11.63-24.83-3.32-25.28-15.54-.47-15.79,28.39,3.32,25.28Z"/><path class="cls-5" d="M147.11,81.36c-15.54-.47-15.79,28.39,3.32,25.28,11.09-1.8,11.63-24.83-3.32-25.28Z"/></g><path class="cls-3" d="M52.26,84.91c-.53-.93-1.99-1.05-2.67-.23-1.12,1.36-4.8,5.98-5.02,8.48-.27,3.08,2.02,5.8,5.1,6.07s5.8-2.02,6.07-5.1c.22-2.5-2.62-7.69-3.49-9.22h0Z"/><path class="cls-3" d="M55.36,64.2c-.41-.77-1.59-.92-2.17-.27-.95,1.08-4.09,4.75-4.34,6.78-.31,2.51,1.48,4.79,3.99,5.1s4.8-1.48,5.1-3.99c.25-2.04-1.91-6.35-2.58-7.63h0Z"/></g></g></svg>